<svg xmlns="http://www.w3.org/2000/svg" xmlns:xlink="http://www.w3.org/1999/xlink" width="124" height="124" viewBox="0 0 124 124">
  <defs>
    <clipPath id="clip-_3">
      <rect width="124" height="124"/>
    </clipPath>
  </defs>
  <g id="_3" data-name="3" clip-path="url(#clip-_3)">
    <path id="Path_12" data-name="Path 12" d="M6,6v6h6V6H6M0,0H18V18H0Z" transform="translate(62 92)"/>
    <path id="Path_13" data-name="Path 13" d="M6,6v6h6V6H6M0,0H18V18H0Z" transform="translate(87 92)"/>
    <path id="Path_2" data-name="Path 2" d="M923.524,596.275l-6-.044.823-112.883c.026-1.27.352-5.368,3.474-6.45,3.207-1.111,5.755,1.989,6.593,3.008,1.577,1.966,3.189,5.346,5.421,10.025l2.269,4.7,3.121.536a3,3,0,0,1,2.04,1.373l6.448,10.374a3,3,0,0,1,.452,1.584v9.777a7.291,7.291,0,0,1-2.383,5.048,7.96,7.96,0,0,1-6.136,1.781q-.11-.009-.218-.025c-1.337-.065-9.227-.032-15.385.013Zm9.322-77.242a67.572,67.572,0,0,1,7.265.225l.011-.14c1.691.135,1.985-.461,2.051-1.062l-.007-8.7-5.285-8.5-3.314-.57a3,3,0,0,1-2.182-1.628l-2.965-6.136c-1.657-3.474-3.023-6.338-4.081-8l-.252,34.568C927.7,519.054,930.566,519.033,932.846,519.033Z" transform="translate(-898 -476)"/>
    <path id="Path_11" data-name="Path 11" d="M7,6A1,1,0,0,0,6,7v5a1,1,0,0,0,1,1H19V6H7M7,0H25V19H7a7,7,0,0,1-7-7V7A7,7,0,0,1,7,0Z" transform="translate(1 18)"/>
    <path id="Path_3" data-name="Path 3" d="M975.336,513.474c-8.576,0-18.918-.011-31.413-.024l.006-6c18.308.019,64.943.056,70.308.011a3.191,3.191,0,0,0,1-.581c-.419.315-2.209-.994-3.825-1.764l-7.772-4.415h-83.12v-6h84.706l8.955,5.1c1.977.924,7.03,3.766,6.86,7.909-.1,2.44-1.832,4.308-5.146,5.551l-.165-.441C1012.663,513.357,1003.684,513.474,975.336,513.474Z" transform="translate(-898 -476)"/>
    <path id="Path_4" data-name="Path 4" d="M934.914,596.734h-6V523.564h6Z" transform="translate(-898 -476.104)"/>
    <path id="Path_5" data-name="Path 5" d="M953.2,594.209h-6V543.794h18.363V555.9h6.363V525.089h6V561.9H959.562V549.794H953.2Z" transform="translate(-898 -476)"/>
    <path id="Path_6" data-name="Path 6" d="M977.926,594.209h-6V549.794h-6.363V561.9H947.2V531.385h6V555.9h6.363V543.794h18.363Z" transform="translate(-861 -476)"/>
    <path id="Path_7" data-name="Path 7" d="M959.726,545.967h-6V532.214h6Z" transform="translate(-898 -476.828)"/>
    <path id="Path_10" data-name="Path 10" d="M959.726,540.874h-6v-8.66h6Z" transform="translate(619.27 -885.918) rotate(90)"/>
    <path id="Path_8" data-name="Path 8" d="M959.726,540.874h-6v-8.66h6Z" transform="translate(-849 -470.735)"/>
    <path id="Path_9" data-name="Path 9" d="M959.726,553.851h-6V532.214h6Z" transform="translate(-849 -497.731)"/>
    <path id="Path_1" data-name="Path 1" d="M1019.052,598.678H902.542a3,3,0,0,1,0-6h116.51a3,3,0,0,1,0,6Z" transform="translate(-899.094 -476)"/>
  </g>
</svg>
